<svg xmlns="http://www.w3.org/2000/svg" width="1440" height="1020" viewBox="0 0 1440 1020">
<rect width="100%" height="100%" fill="#f6f7f9"/>
<rect x="0" y="0" width="1440" height="64" rx="0" fill="#fff" stroke="#ddd" stroke-width="1"/>
<text x="28" y="40" font-family="Arial, sans-serif" font-size="20" font-weight="700" fill="#222" text-anchor="start">Cluckwork</text>
<rect x="1030" y="16" width="180" height="32" rx="16" fill="#fafafa" stroke="#ddd" stroke-width="1"/>
<text x="1048" y="37" font-family="Arial, sans-serif" font-size="12" font-weight="400" fill="#555" text-anchor="start">Farm: Main Farm</text>
<rect x="1220" y="16" width="96" height="32" rx="16" fill="#fff4f4" stroke="#e6b0b0" stroke-width="1"/>
<text x="1268" y="37" font-family="Arial, sans-serif" font-size="12" font-weight="700" fill="#8a1f1f" text-anchor="middle">Alerts 5</text>
<rect x="1330" y="16" width="82" height="32" rx="16" fill="#fafafa" stroke="#ddd" stroke-width="1"/>
<text x="1371" y="37" font-family="Arial, sans-serif" font-size="12" font-weight="400" fill="#555" text-anchor="middle">User</text>
<rect x="0" y="64" width="230" height="956" rx="0" fill="#fff" stroke="#ddd" stroke-width="1"/>
<text x="34" y="110" font-family="Arial, sans-serif" font-size="14" font-weight="400" fill="#666" text-anchor="start">Dashboard</text>
<text x="34" y="154" font-family="Arial, sans-serif" font-size="14" font-weight="400" fill="#666" text-anchor="start">Daily Entry</text>
<text x="34" y="198" font-family="Arial, sans-serif" font-size="14" font-weight="400" fill="#666" text-anchor="start">Flocks</text>
<text x="34" y="242" font-family="Arial, sans-serif" font-size="14" font-weight="400" fill="#666" text-anchor="start">Egg Lots</text>
<text x="34" y="286" font-family="Arial, sans-serif" font-size="14" font-weight="400" fill="#666" text-anchor="start">Egg Inventory</text>
<text x="34" y="330" font-family="Arial, sans-serif" font-size="14" font-weight="400" fill="#666" text-anchor="start">Sales</text>
<text x="34" y="374" font-family="Arial, sans-serif" font-size="14" font-weight="400" fill="#666" text-anchor="start">Feed &amp; Inventory</text>
<text x="34" y="418" font-family="Arial, sans-serif" font-size="14" font-weight="400" fill="#666" text-anchor="start">Health</text>
<text x="34" y="462" font-family="Arial, sans-serif" font-size="14" font-weight="400" fill="#666" text-anchor="start">Alerts</text>
<text x="34" y="506" font-family="Arial, sans-serif" font-size="14" font-weight="400" fill="#666" text-anchor="start">Reports</text>
<rect x="18" y="526" width="194" height="38" rx="8" fill="#eeeeee" stroke="#ddd" stroke-width="1"/>
<text x="34" y="550" font-family="Arial, sans-serif" font-size="14" font-weight="600" fill="#222" text-anchor="start">Settings</text>
<text x="260" y="112" font-family="Arial, sans-serif" font-size="30" font-weight="700" fill="#222" text-anchor="start">Settings</text>
<text x="260" y="142" font-family="Arial, sans-serif" font-size="14" font-weight="400" fill="#666" text-anchor="start">Farm defaults, grades, units, alerts, locks, and backups.</text>
<rect x="260" y="168" width="1140" height="56" rx="8" fill="#fff" stroke="#d4d4d4" stroke-width="1"/>
<rect x="278" y="181" width="86" height="30" rx="15" fill="#e9eef8" stroke="#ddd" stroke-width="1"/>
<text x="292" y="202" font-family="Arial, sans-serif" font-size="12" font-weight="700" fill="#333" text-anchor="start">Farm</text>
<rect x="374" y="181" width="108" height="30" rx="15" fill="#f8f8f8" stroke="#ddd" stroke-width="1"/>
<text x="388" y="202" font-family="Arial, sans-serif" font-size="12" font-weight="400" fill="#333" text-anchor="start">Egg Grades</text>
<rect x="492" y="181" width="86" height="30" rx="15" fill="#f8f8f8" stroke="#ddd" stroke-width="1"/>
<text x="506" y="202" font-family="Arial, sans-serif" font-size="12" font-weight="400" fill="#333" text-anchor="start">Units</text>
<rect x="588" y="181" width="156" height="30" rx="15" fill="#f8f8f8" stroke="#ddd" stroke-width="1"/>
<text x="602" y="202" font-family="Arial, sans-serif" font-size="12" font-weight="400" fill="#333" text-anchor="start">Alert Thresholds</text>
<rect x="754" y="181" width="86" height="30" rx="15" fill="#f8f8f8" stroke="#ddd" stroke-width="1"/>
<text x="768" y="202" font-family="Arial, sans-serif" font-size="12" font-weight="400" fill="#333" text-anchor="start">Locking</text>
<rect x="850" y="181" width="86" height="30" rx="15" fill="#f8f8f8" stroke="#ddd" stroke-width="1"/>
<text x="864" y="202" font-family="Arial, sans-serif" font-size="12" font-weight="400" fill="#333" text-anchor="start">Backups</text>
<rect x="946" y="181" width="100" height="30" rx="15" fill="#f8f8f8" stroke="#ddd" stroke-width="1"/>
<text x="960" y="202" font-family="Arial, sans-serif" font-size="12" font-weight="400" fill="#333" text-anchor="start">Developer</text>
<rect x="260" y="244" width="360" height="305" rx="8" fill="#fff" stroke="#d4d4d4" stroke-width="1"/>
<text x="278" y="276" font-family="Arial, sans-serif" font-size="17" font-weight="700" fill="#222" text-anchor="start">Defaults</text>
<text x="278" y="310" font-family="Arial, sans-serif" font-size="12" font-weight="400" fill="#666" text-anchor="start">Timezone</text>
<rect x="278" y="318" width="324" height="34" rx="6" fill="#fafafa" stroke="#ddd" stroke-width="1"/>
<text x="278" y="364" font-family="Arial, sans-serif" font-size="12" font-weight="400" fill="#666" text-anchor="start">Currency</text>
<rect x="278" y="372" width="324" height="34" rx="6" fill="#fafafa" stroke="#ddd" stroke-width="1"/>
<text x="278" y="418" font-family="Arial, sans-serif" font-size="12" font-weight="400" fill="#666" text-anchor="start">Unit system</text>
<rect x="278" y="426" width="324" height="34" rx="6" fill="#fafafa" stroke="#ddd" stroke-width="1"/>
<text x="278" y="472" font-family="Arial, sans-serif" font-size="12" font-weight="400" fill="#666" text-anchor="start">Tray size</text>
<rect x="278" y="480" width="324" height="34" rx="6" fill="#fafafa" stroke="#ddd" stroke-width="1"/>
<rect x="650" y="244" width="360" height="305" rx="8" fill="#fff" stroke="#d4d4d4" stroke-width="1"/>
<text x="668" y="276" font-family="Arial, sans-serif" font-size="17" font-weight="700" fill="#222" text-anchor="start">Daily Entry Locks</text>
<text x="668" y="310" font-family="Arial, sans-serif" font-size="12" font-weight="400" fill="#666" text-anchor="start">Lock after days</text>
<rect x="668" y="318" width="324" height="34" rx="6" fill="#fafafa" stroke="#ddd" stroke-width="1"/>
<text x="668" y="364" font-family="Arial, sans-serif" font-size="12" font-weight="400" fill="#666" text-anchor="start">Worker edit cutoff</text>
<rect x="668" y="372" width="324" height="34" rx="6" fill="#fafafa" stroke="#ddd" stroke-width="1"/>
<text x="668" y="418" font-family="Arial, sans-serif" font-size="12" font-weight="400" fill="#666" text-anchor="start">Override rules</text>
<rect x="668" y="426" width="324" height="34" rx="6" fill="#fafafa" stroke="#ddd" stroke-width="1"/>
<rect x="1040" y="244" width="360" height="305" rx="8" fill="#fff" stroke="#d4d4d4" stroke-width="1"/>
<text x="1058" y="276" font-family="Arial, sans-serif" font-size="17" font-weight="700" fill="#222" text-anchor="start">Backups</text>
<text x="1058" y="310" font-family="Arial, sans-serif" font-size="12" font-weight="400" fill="#666" text-anchor="start">Manual export</text>
<rect x="1058" y="318" width="324" height="34" rx="6" fill="#fafafa" stroke="#ddd" stroke-width="1"/>
<text x="1058" y="364" font-family="Arial, sans-serif" font-size="12" font-weight="400" fill="#666" text-anchor="start">Scheduled backup target</text>
<rect x="1058" y="372" width="324" height="34" rx="6" fill="#fafafa" stroke="#ddd" stroke-width="1"/>
<text x="1058" y="418" font-family="Arial, sans-serif" font-size="12" font-weight="400" fill="#666" text-anchor="start">Retention</text>
<rect x="1058" y="426" width="324" height="34" rx="6" fill="#fafafa" stroke="#ddd" stroke-width="1"/>
</svg>